<svg version="1.1" xmlns="http://www.w3.org/2000/svg" viewBox="0 0 282 628" width="282" height="628"><defs><style class="style-fonts">
      </style></defs><rect x="0" y="0" width="282" height="628" fill="#fdfdfc"></rect><g stroke-linecap="round" transform="translate(32 32) rotate(0 109 33)"><path d="M0 0 L218 0 L218 66 L0 66" stroke="none" stroke-width="0" fill="#f5f5f5"></path><path d="M0 0 C51.7 0, 103.4 0, 218 0 M0 0 C77.51 0, 155.03 0, 218 0 M218 0 C218 20.47, 218 40.93, 218 66 M218 0 C218 22.98, 218 45.95, 218 66 M218 66 C138.09 66, 58.17 66, 0 66 M218 66 C143.86 66, 69.71 66, 0 66 M0 66 C0 52.51, 0 39.02, 0 0 M0 66 C0 44.6, 0 23.2, 0 0" stroke="#0d0d0d" stroke-width="2" fill="none"></path></g><g transform="translate(44 54.70972478717175) rotate(0 97 10.290275212828249)"><text x="97" y="15.122580063961083" font-family="Helvetica, Segoe UI Emoji" font-size="17.8961308049187px" fill="#0d0d0d" text-anchor="middle" style="white-space: pre;" direction="ltr" dominant-baseline="alphabetic">Task.Run on pool thread</text></g><g stroke-linecap="round" transform="translate(34 198) rotate(0 107 33)"><path d="M0 0 L214 0 L214 66 L0 66" stroke="none" stroke-width="0" fill="#f5f5f5"></path><path d="M0 0 C78.5 0, 156.99 0, 214 0 M0 0 C44.32 0, 88.63 0, 214 0 M214 0 C214 21.28, 214 42.55, 214 66 M214 0 C214 14.26, 214 28.51, 214 66 M214 66 C164.31 66, 114.61 66, 0 66 M214 66 C132.79 66, 51.58 66, 0 66 M0 66 C0 45.98, 0 25.96, 0 0 M0 66 C0 40.64, 0 15.28, 0 0" stroke="#0d0d0d" stroke-width="2" fill="none"></path></g><g transform="translate(46 220.7081876724931) rotate(0 95 10.291812327506904)"><text x="95" y="15.124839006439743" font-family="Helvetica, Segoe UI Emoji" font-size="17.898804047838087px" fill="#0d0d0d" text-anchor="middle" style="white-space: pre;" direction="ltr" dominant-baseline="alphabetic">CPU actively computing</text></g><g stroke-linecap="round" transform="translate(43 364) rotate(0 98.5 33)"><path d="M0 0 L197 0 L197 66 L0 66" stroke="none" stroke-width="0" fill="#f5f5f5"></path><path d="M0 0 C58.44 0, 116.89 0, 197 0 M0 0 C59.54 0, 119.09 0, 197 0 M197 0 C197 26.34, 197 52.68, 197 66 M197 0 C197 17.47, 197 34.95, 197 66 M197 66 C132.93 66, 68.86 66, 0 66 M197 66 C155.6 66, 114.21 66, 0 66 M0 66 C0 39.77, 0 13.54, 0 0 M0 66 C0 45.35, 0 24.7, 0 0" stroke="#0d0d0d" stroke-width="2" fill="none"></path></g><g transform="translate(55 386.347722875817) rotate(0 86.5 10.652277124183001)"><text x="86.5" y="15.654577777777778" font-family="Helvetica, Segoe UI Emoji" font-size="18.52569934640523px" fill="#0d0d0d" text-anchor="middle" style="white-space: pre;" direction="ltr" dominant-baseline="alphabetic">Computation finishes</text></g><g stroke-linecap="round" transform="translate(48 530) rotate(0 93 33)"><path d="M0 0 L186 0 L186 66 L0 66" stroke="none" stroke-width="0" fill="#f5f5f5"></path><path d="M0 0 C43.4 0, 86.8 0, 186 0 M0 0 C58.02 0, 116.04 0, 186 0 M186 0 C186 15.05, 186 30.09, 186 66 M186 0 C186 15.66, 186 31.32, 186 66 M186 66 C138 66, 90 66, 0 66 M186 66 C129.58 66, 73.16 66, 0 66 M0 66 C0 48.33, 0 30.67, 0 0 M0 66 C0 41.84, 0 17.68, 0 0" stroke="#0d0d0d" stroke-width="2" fill="none"></path></g><g transform="translate(60 551.9734003814808) rotate(0 81 11.026599618519185)"><text x="81" y="16.20468181029998" font-family="Helvetica, Segoe UI Emoji" font-size="19.176694988728975px" fill="#0d0d0d" text-anchor="middle" style="white-space: pre;" direction="ltr" dominant-baseline="alphabetic">await returns result</text></g><g stroke-linecap="round"><g transform="translate(141.01268363636362 103.75) rotate(0 0.0004518326118372329 44.25)"><path d="M0 0 C0 29.66, 0 59.32, 0 88.5 M0 0 C0 24.52, 0 49.04, 0 88.5" stroke="#0d0d0d" stroke-width="2" fill="none"></path></g><g transform="translate(141.01268363636362 103.75) rotate(0 0.0004518326118372329 44.25)"><path d="M0 88.5 L-6.34 74.91 L6.34 74.91 L0 88.5" stroke="none" stroke-width="0" fill="#0d0d0d" fill-rule="evenodd"></path><path d="M0 88.5 C-2.12 83.94, -4.25 79.39, -6.34 74.91 M0 88.5 C-1.76 84.73, -3.51 80.97, -6.34 74.91 M-6.34 74.91 C-3.11 74.91, 0.12 74.91, 6.34 74.91 M-6.34 74.91 C-2.02 74.91, 2.29 74.91, 6.34 74.91 M6.34 74.91 C5.03 77.73, 3.71 80.55, 0 88.5 M6.34 74.91 C4.51 78.82, 2.69 82.73, 0 88.5 M0 88.5 C0 88.5, 0 88.5, 0 88.5 M0 88.5 C0 88.5, 0 88.5, 0 88.5" stroke="#0d0d0d" stroke-width="2" fill="none"></path></g></g><mask></mask><g stroke-linecap="round"><g transform="translate(141.0124509090909 269.75) rotate(0 0.15875867243866537 44.250000000000014)"><path d="M0 0 C0.08 22.65, 0.16 45.31, 0.32 88.5 M0 0 C0.12 32.31, 0.23 64.61, 0.32 88.5" stroke="#0d0d0d" stroke-width="2" fill="none"></path></g><g transform="translate(141.0124509090909 269.75) rotate(0 0.15875867243866537 44.250000000000014)"><path d="M0.32 88.5 L-6.07 74.93 L6.61 74.88 L0.32 88.5" stroke="none" stroke-width="0" fill="#0d0d0d" fill-rule="evenodd"></path><path d="M0.32 88.5 C-1.32 85.03, -2.95 81.55, -6.07 74.93 M0.32 88.5 C-2.01 83.55, -4.35 78.59, -6.07 74.93 M-6.07 74.93 C-3.2 74.92, -0.33 74.91, 6.61 74.88 M-6.07 74.93 C-3.52 74.92, -0.98 74.91, 6.61 74.88 M6.61 74.88 C4.98 78.4, 3.36 81.91, 0.32 88.5 M6.61 74.88 C4.68 79.06, 2.75 83.23, 0.32 88.5 M0.32 88.5 C0.32 88.5, 0.32 88.5, 0.32 88.5 M0.32 88.5 C0.32 88.5, 0.32 88.5, 0.32 88.5" stroke="#0d0d0d" stroke-width="2" fill="none"></path></g></g><mask></mask><g stroke-linecap="round"><g transform="translate(141.30237090909088 435.74999999999994) rotate(0 -0.14528069264068932 44.25000000000003)"><path d="M0 0 C-0.08 25.57, -0.17 51.14, -0.29 88.5 M0 0 C-0.07 19.98, -0.13 39.97, -0.29 88.5" stroke="#0d0d0d" stroke-width="2" fill="none"></path></g><g transform="translate(141.30237090909088 435.74999999999994) rotate(0 -0.14528069264068932 44.25000000000003)"><path d="M-0.29 88.5 L-6.59 74.88 L6.09 74.93 L-0.29 88.5" stroke="none" stroke-width="0" fill="#0d0d0d" fill-rule="evenodd"></path><path d="M-0.29 88.5 C-2.11 84.57, -3.93 80.63, -6.59 74.88 M-0.29 88.5 C-1.71 85.43, -3.13 82.35, -6.59 74.88 M-6.59 74.88 C-2.32 74.9, 1.94 74.91, 6.09 74.93 M-6.59 74.88 C-3.77 74.89, -0.95 74.9, 6.09 74.93 M6.09 74.93 C3.88 79.63, 1.67 84.33, -0.29 88.5 M6.09 74.93 C3.72 79.98, 1.34 85.04, -0.29 88.5 M-0.29 88.5 C-0.29 88.5, -0.29 88.5, -0.29 88.5 M-0.29 88.5 C-0.29 88.5, -0.29 88.5, -0.29 88.5" stroke="#0d0d0d" stroke-width="2" fill="none"></path></g></g><mask></mask></svg>