<svg version="1.1" xmlns="http://www.w3.org/2000/svg" viewBox="0 0 712 947" width="712" height="947"><defs><style class="style-fonts">
      </style></defs><rect x="0" y="0" width="712" height="947" fill="#fdfdfc"></rect><g stroke-linecap="round"><g transform="translate(630 98) rotate(0 0 408.5)"><path d="M0 0 C0 165.03, 0 330.06, 0 817" stroke="#0d0d0d" stroke-width="1.5" fill="none" stroke-dasharray="8 9"></path></g></g><mask></mask><g stroke-linecap="round" transform="translate(629.5 98) rotate(0 0.5 408.5)"><path d="M0 0 C0.28 0, 0.56 0, 1 0 M1 0 C1 242.8, 1 485.6, 1 817 M1 817 C0.61 817, 0.22 817, 0 817 M0 817 C0 644.41, 0 471.83, 0 0" stroke="transparent" stroke-width="2.5" fill="none" stroke-dasharray="8 10"></path></g><g stroke-linecap="round"><g transform="translate(396 98) rotate(0 0 408.5)"><path d="M0 0 C0 185.23, 0 370.47, 0 817" stroke="#0d0d0d" stroke-width="1.5" fill="none" stroke-dasharray="8 9"></path></g></g><mask></mask><g stroke-linecap="round" transform="translate(395.5 98) rotate(0 0.5 408.5)"><path d="M0 0 C0.34 0, 0.68 0, 1 0 M1 0 C1 318.21, 1 636.41, 1 817 M1 817 C0.67 817, 0.34 817, 0 817 M0 817 C0 650.39, 0 483.79, 0 0" stroke="transparent" stroke-width="2.5" fill="none" stroke-dasharray="8 10"></path></g><g stroke-linecap="round"><g transform="translate(164 98) rotate(0 0 408.5)"><path d="M0 0 C0 223.29, 0 446.59, 0 817" stroke="#0d0d0d" stroke-width="1.5" fill="none" stroke-dasharray="8 9"></path></g></g><mask></mask><g stroke-linecap="round" transform="translate(163.5 98) rotate(0 0.5 408.5)"><path d="M0 0 C0.3 0, 0.6 0, 1 0 M1 0 C1 188.05, 1 376.1, 1 817 M1 817 C0.78 817, 0.56 817, 0 817 M0 817 C0 563.84, 0 310.67, 0 0" stroke="transparent" stroke-width="2.5" fill="none" stroke-dasharray="8 10"></path></g><g stroke-linecap="round" transform="translate(114 32) rotate(0 50 33)"><path d="M0 0 L100 0 L100 66 L0 66" stroke="none" stroke-width="0" fill="#f5f5f5"></path><path d="M0 0 C39.75 0, 79.51 0, 100 0 M0 0 C35.67 0, 71.33 0, 100 0 M100 0 C100 19.9, 100 39.79, 100 66 M100 0 C100 15.19, 100 30.38, 100 66 M100 66 C77.86 66, 55.71 66, 0 66 M100 66 C69.01 66, 38.03 66, 0 66 M0 66 C0 47.64, 0 29.28, 0 0 M0 66 C0 41.96, 0 17.92, 0 0" stroke="#0d0d0d" stroke-width="2" fill="none"></path></g><g transform="translate(137.8818359375 53.5) rotate(0 26.1181640625 11.5)"><text x="26.1181640625" y="16.900390625" font-family="Helvetica, Segoe UI Emoji" font-size="20px" fill="#0d0d0d" text-anchor="middle" style="white-space: pre;" direction="ltr" dominant-baseline="alphabetic">Caller</text></g><g stroke-linecap="round" transform="translate(331 32) rotate(0 65 33)"><path d="M0 0 L130 0 L130 66 L0 66" stroke="none" stroke-width="0" fill="#f5f5f5"></path><path d="M0 0 C51.43 0, 102.86 0, 130 0 M0 0 C35.57 0, 71.13 0, 130 0 M130 0 C130 18.04, 130 36.08, 130 66 M130 0 C130 20.06, 130 40.11, 130 66 M130 66 C84.23 66, 38.46 66, 0 66 M130 66 C82.91 66, 35.81 66, 0 66 M0 66 C0 42.71, 0 19.43, 0 0 M0 66 C0 41.98, 0 17.96, 0 0" stroke="#0d0d0d" stroke-width="2" fill="none"></path></g><g transform="translate(343 54.65219265522673) rotate(0 53 10.347807344773273)"><text x="53" y="15.207129238166292" font-family="Helvetica, Segoe UI Emoji" font-size="17.996186686562215px" fill="#0d0d0d" text-anchor="middle" style="white-space: pre;" direction="ltr" dominant-baseline="alphabetic">FetchAsync()</text></g><g stroke-linecap="round" transform="translate(580 32) rotate(0 50 33)"><path d="M0 0 L100 0 L100 66 L0 66" stroke="none" stroke-width="0" fill="#f5f5f5"></path><path d="M0 0 C24.92 0, 49.84 0, 100 0 M0 0 C28.62 0, 57.24 0, 100 0 M100 0 C100 22.29, 100 44.57, 100 66 M100 0 C100 25.71, 100 51.41, 100 66 M100 66 C67.08 66, 34.15 66, 0 66 M100 66 C79.61 66, 59.21 66, 0 66 M0 66 C0 43.64, 0 21.29, 0 0 M0 66 C0 46.36, 0 26.72, 0 0" stroke="#0d0d0d" stroke-width="2" fill="none"></path></g><g transform="translate(609.4384765625 53.5) rotate(0 20.5615234375 11.5)"><text x="20.5615234375" y="16.900390625" font-family="Helvetica, Segoe UI Emoji" font-size="20px" fill="#0d0d0d" text-anchor="middle" style="white-space: pre;" direction="ltr" dominant-baseline="alphabetic">Task</text></g><g stroke-linecap="round" transform="translate(276 350) rotate(0 119.5 33)"><path d="M0 0 L239 0 L239 66 L0 66" stroke="none" stroke-width="0" fill="#f5f5f5"></path><path d="M0 0 C50.7 0, 101.39 0, 239 0 M0 0 C76.72 0, 153.44 0, 239 0 M239 0 C239 14.96, 239 29.93, 239 66 M239 0 C239 15.32, 239 30.63, 239 66 M239 66 C186.5 66, 134 66, 0 66 M239 66 C181.11 66, 123.22 66, 0 66 M0 66 C0 46.63, 0 27.26, 0 0 M0 66 C0 47.61, 0 29.21, 0 0" stroke="#0d0d0d" stroke-width="2" fill="none"></path></g><g transform="translate(288 373.0712156862745) rotate(0 107.5 9.928784313725487)"><text x="107.49999999999999" y="14.591333333333331" font-family="Helvetica, Segoe UI Emoji" font-size="17.267450980392155px" fill="#0d0d0d" text-anchor="middle" style="white-space: pre;" direction="ltr" dominant-baseline="alphabetic">exception thrown after await</text></g><g stroke-linecap="round"><g transform="translate(503 350) rotate(0 6 6)"><path d="M0 0 C0 3.03, 0 6.05, 0 12 M0 0 C0 2.63, 0 5.25, 0 12 M0 12 C3.36 12, 6.73 12, 12 12 M0 12 C3.57 12, 7.13 12, 12 12" stroke="#0d0d0d" stroke-width="1" fill="none"></path></g></g><mask></mask><g stroke-linecap="round" transform="translate(32 668) rotate(0 132.5 33)"><path d="M0 0 L265 0 L265 66 L0 66" stroke="none" stroke-width="0" fill="#f5f5f5"></path><path d="M0 0 C54.9 0, 109.79 0, 265 0 M0 0 C73.75 0, 147.5 0, 265 0 M265 0 C265 13.33, 265 26.66, 265 66 M265 0 C265 20.77, 265 41.54, 265 66 M265 66 C193.34 66, 121.69 66, 0 66 M265 66 C181.35 66, 97.7 66, 0 66 M0 66 C0 48.08, 0 30.16, 0 0 M0 66 C0 49.79, 0 33.58, 0 0" stroke="#0d0d0d" stroke-width="2" fill="none"></path></g><g transform="translate(44.000000000000014 691.3737331252968) rotate(0 120.5 9.62626687470322)"><text x="120.49999999999999" y="14.146753951563664" font-family="Helvetica, Segoe UI Emoji" font-size="16.741333695136014px" fill="#0d0d0d" text-anchor="middle" style="white-space: pre;" direction="ltr" dominant-baseline="alphabetic">await re-throws stored exception</text></g><g stroke-linecap="round"><g transform="translate(285 668) rotate(0 6 6)"><path d="M0 0 C0 4.1, 0 8.19, 0 12 M0 0 C0 2.4, 0 4.8, 0 12 M0 12 C2.59 12, 5.18 12, 12 12 M0 12 C2.67 12, 5.34 12, 12 12" stroke="#0d0d0d" stroke-width="1" fill="none"></path></g></g><mask></mask><g stroke-linecap="round"><g transform="translate(164.5 178) rotate(0 115.5 0)"><path d="M0 0 C49.82 0, 99.64 0, 231 0 M0 0 C51.37 0, 102.74 0, 231 0" stroke="#0d0d0d" stroke-width="2" fill="none"></path></g><g transform="translate(164.5 178) rotate(0 115.5 0)"><path d="M231 0 L217.41 6.34 L217.41 -6.34 L231 0" stroke="none" stroke-width="0" fill="#0d0d0d" fill-rule="evenodd"></path><path d="M231 0 C228.07 1.37, 225.14 2.73, 217.41 6.34 M231 0 C227.98 1.41, 224.95 2.82, 217.41 6.34 M217.41 6.34 C217.41 2.59, 217.41 -1.17, 217.41 -6.34 M217.41 6.34 C217.41 1.59, 217.41 -3.15, 217.41 -6.34 M217.41 -6.34 C220.27 -5, 223.13 -3.67, 231 0 M217.41 -6.34 C221.46 -4.45, 225.52 -2.56, 231 0 M231 0 C231 0, 231 0, 231 0 M231 0 C231 0, 231 0, 231 0" stroke="#0d0d0d" stroke-width="2" fill="none"></path></g></g><mask></mask><g stroke-linecap="round"><g transform="translate(396.5 268) rotate(0 116.5 0)"><path d="M0 0 C51.6 0, 103.19 0, 233 0 M0 0 C72.2 0, 144.4 0, 233 0" stroke="#0d0d0d" stroke-width="2" fill="none"></path></g><g transform="translate(396.5 268) rotate(0 116.5 0)"><path d="M233 0 L219.41 6.34 L219.41 -6.34 L233 0" stroke="none" stroke-width="0" fill="#0d0d0d" fill-rule="evenodd"></path><path d="M233 0 C229.99 1.4, 226.98 2.81, 219.41 6.34 M233 0 C228.79 1.96, 224.57 3.93, 219.41 6.34 M219.41 6.34 C219.41 2.81, 219.41 -0.71, 219.41 -6.34 M219.41 6.34 C219.41 1.72, 219.41 -2.9, 219.41 -6.34 M219.41 -6.34 C222.97 -4.68, 226.54 -3.01, 233 0 M219.41 -6.34 C222.39 -4.95, 225.38 -3.55, 233 0 M233 0 C233 0, 233 0, 233 0 M233 0 C233 0, 233 0, 233 0" stroke="#0d0d0d" stroke-width="2" fill="none"></path></g></g><mask></mask><g stroke-linecap="round"><g transform="translate(396.5 494) rotate(0 116.5 0)"><path d="M0 0 C82.04 0, 164.07 0, 233 0 M0 0 C84.41 0, 168.82 0, 233 0" stroke="#0d0d0d" stroke-width="2" fill="none"></path></g><g transform="translate(396.5 494) rotate(0 116.5 0)"><path d="M233 0 L219.41 6.34 L219.41 -6.34 L233 0" stroke="none" stroke-width="0" fill="#0d0d0d" fill-rule="evenodd"></path><path d="M233 0 C228.21 2.23, 223.43 4.46, 219.41 6.34 M233 0 C228.08 2.3, 223.15 4.59, 219.41 6.34 M219.41 6.34 C219.41 1.87, 219.41 -2.61, 219.41 -6.34 M219.41 6.34 C219.41 1.73, 219.41 -2.89, 219.41 -6.34 M219.41 -6.34 C222.43 -4.93, 225.46 -3.51, 233 0 M219.41 -6.34 C222.47 -4.91, 225.54 -3.48, 233 0 M233 0 C233 0, 233 0, 233 0 M233 0 C233 0, 233 0, 233 0" stroke="#0d0d0d" stroke-width="2" fill="none"></path></g></g><mask></mask><g stroke-linecap="round"><g transform="translate(629.5 584) rotate(0 -232.5 0)"><path d="M0 0 C-153.1 0, -306.19 0, -465 0" stroke="#0d0d0d" stroke-width="2.5" fill="none" stroke-dasharray="8 10"></path></g><g transform="translate(629.5 584) rotate(0 -232.5 0)"><path d="M-465 0 L-451.41 -6.34 L-451.41 6.34 L-465 0" stroke="none" stroke-width="0" fill="#0d0d0d" fill-rule="evenodd"></path><path d="M-465 0 C-460.52 -2.09, -456.05 -4.17, -451.41 -6.34 M-451.41 -6.34 C-451.41 -3.75, -451.41 -1.17, -451.41 6.34 M-451.41 6.34 C-456.01 4.19, -460.62 2.04, -465 0 M-465 0 C-465 0, -465 0, -465 0" stroke="#0d0d0d" stroke-width="2.5" fill="none"></path></g></g><mask></mask><g stroke-linecap="round"><g transform="translate(163.5 800) rotate(0 58.25 22.5)"><path d="M0 0 C25.59 0, 51.18 0, 116.5 0 M0 0 C28.22 0, 56.43 0, 116.5 0 M116.5 0 C116.5 13.21, 116.5 26.41, 116.5 45 M116.5 0 C116.5 12.54, 116.5 25.08, 116.5 45 M116.5 45 C83.06 45, 49.62 45, 1 45 M116.5 45 C75.15 45, 33.79 45, 1 45" stroke="#0d0d0d" stroke-width="2" fill="none"></path></g><g transform="translate(163.5 800) rotate(0 58.25 22.5)"><path d="M1 45 L14.59 38.66 L14.59 51.34 L1 45" stroke="none" stroke-width="0" fill="#0d0d0d" fill-rule="evenodd"></path><path d="M1 45 C3.99 43.61, 6.97 42.22, 14.59 38.66 M1 45 C4.29 43.46, 7.59 41.93, 14.59 38.66 M14.59 38.66 C14.59 42.38, 14.59 46.1, 14.59 51.34 M14.59 38.66 C14.59 42.19, 14.59 45.73, 14.59 51.34 M14.59 51.34 C10.66 49.5, 6.72 47.67, 1 45 M14.59 51.34 C9.73 49.07, 4.86 46.8, 1 45 M1 45 C1 45, 1 45, 1 45 M1 45 C1 45, 1 45, 1 45" stroke="#0d0d0d" stroke-width="2" fill="none"></path></g></g><mask></mask><g stroke-linecap="round" transform="translate(209.48047637939453 167.0097911834717) rotate(0 71.01953125 11.200000000000003)"><path d="M0 0 L142.04 0 L142.04 22.4 L0 22.4" stroke="none" stroke-width="0" fill="#fdfdfc"></path><path d="M0 0 C50.12 0, 100.23 0, 142.04 0 M0 0 C51.69 0, 103.38 0, 142.04 0 M142.04 0 C142.04 4.99, 142.04 9.98, 142.04 22.4 M142.04 0 C142.04 5.06, 142.04 10.11, 142.04 22.4 M142.04 22.4 C109.46 22.4, 76.88 22.4, 0 22.4 M142.04 22.4 C103.33 22.4, 64.61 22.4, 0 22.4 M0 22.4 C0 16.72, 0 11.03, 0 0 M0 22.4 C0 16.94, 0 11.49, 0 0" stroke="transparent" stroke-width="2" fill="none"></path></g><g transform="translate(212.48047637939453 169.0097911834717) rotate(0 68.01953125 9.200000000000003)"><text x="68.01953125" y="13.5203125" font-family="Helvetica, Segoe UI Emoji" font-size="16px" fill="#0d0d0d" text-anchor="middle" style="white-space: pre;" direction="ltr" dominant-baseline="alphabetic">await FetchAsync()</text></g><g stroke-linecap="round" transform="translate(432.69139099121094 257.00980644226075) rotate(0 80.80859375 11.199999999999989)"><path d="M0 0 L161.62 0 L161.62 22.4 L0 22.4" stroke="none" stroke-width="0" fill="#fdfdfc"></path><path d="M0 0 C47.43 0, 94.86 0, 161.62 0 M0 0 C45.04 0, 90.08 0, 161.62 0 M161.62 0 C161.62 6.49, 161.62 12.97, 161.62 22.4 M161.62 0 C161.62 8.02, 161.62 16.04, 161.62 22.4 M161.62 22.4 C116.06 22.4, 70.51 22.4, 0 22.4 M161.62 22.4 C98.22 22.4, 34.83 22.4, 0 22.4 M0 22.4 C0 16.33, 0 10.26, 0 0 M0 22.4 C0 13.55, 0 4.7, 0 0" stroke="transparent" stroke-width="2" fill="none"></path></g><g transform="translate(435.69139099121094 259.00980644226075) rotate(0 77.80859375 9.199999999999989)"><text x="77.80859375" y="13.5203125" font-family="Helvetica, Segoe UI Emoji" font-size="16px" fill="#0d0d0d" text-anchor="middle" style="white-space: pre;" direction="ltr" dominant-baseline="alphabetic">returns Task (running)</text></g><g stroke-linecap="round" transform="translate(417.27598571777344 483.00980644226075) rotate(0 95.93359375 11.200000000000017)"><path d="M0 0 L191.87 0 L191.87 22.4 L0 22.4" stroke="none" stroke-width="0" fill="#fdfdfc"></path><path d="M0 0 C52.1 0, 104.2 0, 191.87 0 M0 0 C47.13 0, 94.25 0, 191.87 0 M191.87 0 C191.87 7.08, 191.87 14.15, 191.87 22.4 M191.87 0 C191.87 5.5, 191.87 11.01, 191.87 22.4 M191.87 22.4 C142.12 22.4, 92.38 22.4, 0 22.4 M191.87 22.4 C145.84 22.4, 99.81 22.4, 0 22.4 M0 22.4 C0 13.53, 0 4.66, 0 0 M0 22.4 C0 14.74, 0 7.09, 0 0" stroke="transparent" stroke-width="2" fill="none"></path></g><g transform="translate(420.27598571777344 485.00980644226075) rotate(0 92.93359375 9.200000000000017)"><text x="92.93359375" y="13.5203125" font-family="Helvetica, Segoe UI Emoji" font-size="16px" fill="#0d0d0d" text-anchor="middle" style="white-space: pre;" direction="ltr" dominant-baseline="alphabetic">Task transitions to Faulted</text></g><g stroke-linecap="round" transform="translate(312.87032318115234 573.0098064422607) rotate(0 84.83984375 11.199999999999989)"><path d="M0 0 L169.68 0 L169.68 22.4 L0 22.4" stroke="none" stroke-width="0" fill="#fdfdfc"></path><path d="M0 0 C44.54 0, 89.07 0, 169.68 0 M0 0 C37.28 0, 74.55 0, 169.68 0 M169.68 0 C169.68 7.37, 169.68 14.74, 169.68 22.4 M169.68 0 C169.68 8.22, 169.68 16.44, 169.68 22.4 M169.68 22.4 C120.45 22.4, 71.23 22.4, 0 22.4 M169.68 22.4 C107.34 22.4, 44.99 22.4, 0 22.4 M0 22.4 C0 15.47, 0 8.54, 0 0 M0 22.4 C0 16.6, 0 10.8, 0 0" stroke="transparent" stroke-width="2" fill="none"></path></g><g transform="translate(315.87032318115234 575.0098064422607) rotate(0 81.83984375 9.199999999999989)"><text x="81.83984375" y="13.5203125" font-family="Helvetica, Segoe UI Emoji" font-size="16px" fill="#0d0d0d" text-anchor="middle" style="white-space: pre;" direction="ltr" dominant-baseline="alphabetic">continuation scheduled</text></g><g stroke-linecap="round" transform="translate(160.05467987060547 811.0098064422607) rotate(0 119.9453125 11.199999999999989)"><path d="M0 0 L239.89 0 L239.89 22.4 L0 22.4" stroke="none" stroke-width="0" fill="#fdfdfc"></path><path d="M0 0 C63.23 0, 126.47 0, 239.89 0 M0 0 C92.14 0, 184.28 0, 239.89 0 M239.89 0 C239.89 6.22, 239.89 12.44, 239.89 22.4 M239.89 0 C239.89 7.36, 239.89 14.73, 239.89 22.4 M239.89 22.4 C161.96 22.4, 84.03 22.4, 0 22.4 M239.89 22.4 C154.77 22.4, 69.65 22.4, 0 22.4 M0 22.4 C0 17.63, 0 12.86, 0 0 M0 22.4 C0 16.8, 0 11.2, 0 0" stroke="transparent" stroke-width="2" fill="none"></path></g><g transform="translate(163.05467987060547 813.0098064422607) rotate(0 116.9453125 9.199999999999989)"><text x="116.9453125" y="13.5203125" font-family="Helvetica, Segoe UI Emoji" font-size="16px" fill="#0d0d0d" text-anchor="middle" style="white-space: pre;" direction="ltr" dominant-baseline="alphabetic">catch (HttpRequestException ex)</text></g></svg>