<svg version="1.1" xmlns="http://www.w3.org/2000/svg" viewBox="0 0 804 416.1067176818848" width="804" height="416.1067176818848"><defs><style class="style-fonts">
      </style></defs><rect x="0" y="0" width="804" height="416.1067176818848" fill="#fdfdfc"></rect><g stroke-linecap="round" transform="translate(32 71.10671768188476) rotate(0 113 156.5)"><path d="M0 0 L226 0 L226 313 L0 313" stroke="none" stroke-width="0" fill="#f5f5f5"></path><path d="M0 0 C56.26 0, 112.51 0, 226 0 M0 0 C80.69 0, 161.38 0, 226 0 M226 0 C226 100.4, 226 200.81, 226 313 M226 0 C226 93.73, 226 187.47, 226 313 M226 313 C149.79 313, 73.58 313, 0 313 M226 313 C179.86 313, 133.72 313, 0 313 M0 313 C0 235.81, 0 158.62, 0 0 M0 313 C0 229.09, 0 145.17, 0 0" stroke="#0d0d0d" stroke-width="2" fill="none"></path></g><g stroke-linecap="round" transform="translate(62 101.10671768188476) rotate(0 83 33)"><path d="M0 0 L166 0 L166 66 L0 66" stroke="none" stroke-width="0" fill="#f5f5f5"></path><path d="M0 0 C54.83 0, 109.66 0, 166 0 M0 0 C47.98 0, 95.97 0, 166 0 M166 0 C166 21.42, 166 42.83, 166 66 M166 0 C166 19.63, 166 39.25, 166 66 M166 66 C122.65 66, 79.3 66, 0 66 M166 66 C104.47 66, 42.94 66, 0 66 M0 66 C0 52.71, 0 39.41, 0 0 M0 66 C0 43.55, 0 21.1, 0 0" stroke="#0d0d0d" stroke-width="2" fill="none"></path></g><g transform="translate(74 123.22571820244697) rotate(0 71 10.88099947943779)"><text x="71" y="15.99070796460177" font-family="Helvetica, Segoe UI Emoji" font-size="18.923477355543987px" fill="#0d0d0d" text-anchor="middle" style="white-space: pre;" direction="ltr" dominant-baseline="alphabetic">ReportGenerator</text></g><g stroke-linecap="round" transform="translate(78 288.1067176818848) rotate(0 67 33)"><path d="M0 0 L134 0 L134 66 L0 66" stroke="none" stroke-width="0" fill="#f5f5f5"></path><path d="M0 0 C36.46 0, 72.91 0, 134 0 M0 0 C30.1 0, 60.19 0, 134 0 M134 0 C134 22.91, 134 45.81, 134 66 M134 0 C134 16.48, 134 32.96, 134 66 M134 66 C98.23 66, 62.46 66, 0 66 M134 66 C91.62 66, 49.23 66, 0 66 M0 66 C0 39.65, 0 13.3, 0 0 M0 66 C0 39.87, 0 13.74, 0 0" stroke="#0d0d0d" stroke-width="2" fill="none"></path></g><g transform="translate(90 310.06075537268373) rotate(0 55 11.045962309200974)"><text x="55" y="16.233137204741194" font-family="Helvetica, Segoe UI Emoji" font-size="19.210369233393024px" fill="#0d0d0d" text-anchor="middle" style="white-space: pre;" direction="ltr" dominant-baseline="alphabetic">SqlDatabase</text></g><g stroke-linecap="round" transform="translate(299 71.10671768188476) rotate(0 236.5 156.5)"><path d="M0 0 L473 0 L473 313 L0 313" stroke="none" stroke-width="0" fill="#f5f5f5"></path><path d="M0 0 C140.58 0, 281.16 0, 473 0 M0 0 C148.89 0, 297.79 0, 473 0 M473 0 C473 63.34, 473 126.67, 473 313 M473 0 C473 66.91, 473 133.83, 473 313 M473 313 C371.07 313, 269.14 313, 0 313 M473 313 C355.69 313, 238.38 313, 0 313 M0 313 C0 249.02, 0 185.03, 0 0 M0 313 C0 239.21, 0 165.42, 0 0" stroke="#0d0d0d" stroke-width="2" fill="none"></path></g><g stroke-linecap="round" transform="translate(329 101.10671768188476) rotate(0 83 33)"><path d="M0 0 L166 0 L166 66 L0 66" stroke="none" stroke-width="0" fill="#f5f5f5"></path><path d="M0 0 C54.8 0, 109.59 0, 166 0 M0 0 C39.42 0, 78.84 0, 166 0 M166 0 C166 19.75, 166 39.5, 166 66 M166 0 C166 25.06, 166 50.12, 166 66 M166 66 C123.41 66, 80.83 66, 0 66 M166 66 C114.2 66, 62.4 66, 0 66 M0 66 C0 42, 0 17.99, 0 0 M0 66 C0 52.42, 0 38.84, 0 0" stroke="#0d0d0d" stroke-width="2" fill="none"></path></g><g transform="translate(341 123.22571820244697) rotate(0 71 10.88099947943779)"><text x="71" y="15.99070796460177" font-family="Helvetica, Segoe UI Emoji" font-size="18.923477355543987px" fill="#0d0d0d" text-anchor="middle" style="white-space: pre;" direction="ltr" dominant-baseline="alphabetic">ReportGenerator</text></g><g stroke-linecap="round" transform="translate(446 288.1067176818848) rotate(0 84 33)"><path d="M0 0 L168 0 L168 66 L0 66" stroke="none" stroke-width="0" fill="#f5f5f5"></path><path d="M0 0 C59.26 0, 118.52 0, 168 0 M0 0 C57.3 0, 114.6 0, 168 0 M168 0 C168 26.28, 168 52.55, 168 66 M168 0 C168 14.15, 168 28.3, 168 66 M168 66 C103.32 66, 38.64 66, 0 66 M168 66 C111.27 66, 54.54 66, 0 66 M0 66 C0 42.06, 0 18.11, 0 0 M0 66 C0 43.47, 0 20.95, 0 0" stroke="#0d0d0d" stroke-width="2" fill="none"></path></g><g transform="translate(458 310.2316840129307) rotate(0 72 10.875033668954018)"><text x="72" y="15.981940614378244" font-family="Helvetica, Segoe UI Emoji" font-size="18.913102032963508px" fill="#0d0d0d" text-anchor="middle" style="white-space: pre;" direction="ltr" dominant-baseline="alphabetic">IOrderRepository</text></g><g stroke-linecap="round" transform="translate(555 101.10671768188476) rotate(0 93.5 33)"><path d="M0 0 L187 0 L187 66 L0 66" stroke="none" stroke-width="0" fill="#f5f5f5"></path><path d="M0 0 C67.5 0, 135.01 0, 187 0 M0 0 C72.59 0, 145.18 0, 187 0 M187 0 C187 24.21, 187 48.42, 187 66 M187 0 C187 13.55, 187 27.1, 187 66 M187 66 C112.75 66, 38.5 66, 0 66 M187 66 C115.78 66, 44.57 66, 0 66 M0 66 C0 40.75, 0 15.51, 0 0 M0 66 C0 45.5, 0 25, 0 0" stroke="#0d0d0d" stroke-width="2" fill="none"></path></g><g transform="translate(567 123.43340807334384) rotate(0 81.5 10.673309608540926)"><text x="81.5" y="15.685487099644128" font-family="Helvetica, Segoe UI Emoji" font-size="18.562277580071175px" fill="#0d0d0d" text-anchor="middle" style="white-space: pre;" direction="ltr" dominant-baseline="alphabetic">SqlOrderRepository</text></g><g stroke-linecap="round"><g transform="translate(145.01063711681365 172.85671768188476) rotate(0 -0.0007588361846018188 54.750000000000014)"><path d="M0 0 C0 35.13, 0 70.25, 0 109.5 M0 0 C0 32.79, 0 65.58, 0 109.5" stroke="#0d0d0d" stroke-width="2" fill="none"></path></g><g transform="translate(145.01063711681365 172.85671768188476) rotate(0 -0.0007588361846018188 54.750000000000014)"><path d="M0 109.5 L-6.34 95.91 L6.34 95.91 L0 109.5" stroke="none" stroke-width="0" fill="#0d0d0d" fill-rule="evenodd"></path><path d="M0 109.5 C-2.03 105.14, -4.07 100.78, -6.34 95.91 M0 109.5 C-1.9 105.43, -3.8 101.36, -6.34 95.91 M-6.34 95.91 C-2.07 95.91, 2.21 95.91, 6.34 95.91 M-6.34 95.91 C-3.75 95.91, -1.16 95.91, 6.34 95.91 M6.34 95.91 C4.77 99.26, 3.21 102.61, 0 109.5 M6.34 95.91 C4.64 99.55, 2.94 103.19, 0 109.5 M0 109.5 C0 109.5, 0 109.5, 0 109.5 M0 109.5 C0 109.5, 0 109.5, 0 109.5" stroke="#0d0d0d" stroke-width="2" fill="none"></path></g></g><mask></mask><g stroke-linecap="round"><g transform="translate(412.03455195099826 172.85671768188476) rotate(0 33.91899342656163 54.750000000000014)"><path d="M0 0 C22.01 35.53, 44.03 71.06, 67.84 109.5 M0 0 C20.17 32.56, 40.34 65.12, 67.84 109.5" stroke="#0d0d0d" stroke-width="2" fill="none"></path></g><g transform="translate(412.03455195099826 172.85671768188476) rotate(0 33.91899342656163 54.750000000000014)"><path d="M67.84 109.5 L55.29 101.28 L66.07 94.6 L67.84 109.5" stroke="none" stroke-width="0" fill="#0d0d0d" fill-rule="evenodd"></path><path d="M67.84 109.5 C63.77 106.83, 59.69 104.17, 55.29 101.28 M67.84 109.5 C64.11 107.06, 60.38 104.61, 55.29 101.28 M55.29 101.28 C58.1 99.54, 60.92 97.79, 66.07 94.6 M55.29 101.28 C59.28 98.81, 63.28 96.33, 66.07 94.6 M66.07 94.6 C66.42 97.6, 66.78 100.6, 67.84 109.5 M66.07 94.6 C66.67 99.67, 67.27 104.74, 67.84 109.5 M67.84 109.5 C67.84 109.5, 67.84 109.5, 67.84 109.5 M67.84 109.5 C67.84 109.5, 67.84 109.5, 67.84 109.5" stroke="#0d0d0d" stroke-width="2" fill="none"></path></g></g><mask></mask><g stroke-linecap="round"><g transform="translate(648.127153136872 172.85671768188476) rotate(0 -34.24984977790041 54.750000000000014)"><path d="M0 0 C-23.77 38.01, -47.55 76.01, -68.5 109.5" stroke="#0d0d0d" stroke-width="2.5" fill="none" stroke-dasharray="8 10"></path></g><g transform="translate(648.127153136872 172.85671768188476) rotate(0 -34.24984977790041 54.750000000000014)"><path d="M-68.5 109.5 L-66.66 94.61 L-55.92 101.34 L-68.5 109.5" stroke="none" stroke-width="0" fill="#0d0d0d" fill-rule="evenodd"></path><path d="M-68.5 109.5 C-67.86 104.33, -67.23 99.17, -66.66 94.61 M-66.66 94.61 C-63.98 96.29, -61.3 97.97, -55.92 101.34 M-55.92 101.34 C-59.27 103.52, -62.63 105.7, -68.5 109.5 M-68.5 109.5 C-68.5 109.5, -68.5 109.5, -68.5 109.5" stroke="#0d0d0d" stroke-width="2.5" fill="none"></path></g></g><mask></mask><g transform="translate(103.75194549560547 31.999999999999996) rotate(0 41.248046875 16.099999999999998)"><text x="41.248046875" y="23.660546874999998" font-family="Helvetica, Segoe UI Emoji" font-size="28px" fill="#0a7a5e" text-anchor="middle" style="white-space: pre;" direction="ltr" dominant-baseline="alphabetic">Before</text></g><g transform="translate(506.0796012878418 31.999999999999996) rotate(0 29.5654296875 16.099999999999998)"><text x="29.5654296875" y="23.660546874999998" font-family="Helvetica, Segoe UI Emoji" font-size="28px" fill="#0a7a5e" text-anchor="middle" style="white-space: pre;" direction="ltr" dominant-baseline="alphabetic">After</text></g><g stroke-linecap="round" transform="translate(100.18359375 216.24502410888672) rotate(0 44.81640625 11.200000000000003)"><path d="M0 0 L89.63 0 L89.63 22.4 L0 22.4" stroke="none" stroke-width="0" fill="#fdfdfc"></path><path d="M0 0 C23 0, 45.99 0, 89.63 0 M0 0 C27.97 0, 55.94 0, 89.63 0 M89.63 0 C89.63 8.15, 89.63 16.29, 89.63 22.4 M89.63 0 C89.63 4.61, 89.63 9.22, 89.63 22.4 M89.63 22.4 C65.88 22.4, 42.12 22.4, 0 22.4 M89.63 22.4 C64.75 22.4, 39.87 22.4, 0 22.4 M0 22.4 C0 13.86, 0 5.32, 0 0 M0 22.4 C0 13.53, 0 4.66, 0 0" stroke="transparent" stroke-width="2" fill="none"></path></g><g transform="translate(103.18359375 218.24502410888672) rotate(0 41.81640625 9.200000000000003)"><text x="41.81640625" y="13.5203125" font-family="Helvetica, Segoe UI Emoji" font-size="16px" fill="#0d0d0d" text-anchor="middle" style="white-space: pre;" direction="ltr" dominant-baseline="alphabetic">depends on</text></g><g stroke-linecap="round" transform="translate(382.1835708618164 228.24500885009766) rotate(0 44.81640625 11.200000000000003)"><path d="M0 0 L89.63 0 L89.63 22.4 L0 22.4" stroke="none" stroke-width="0" fill="#fdfdfc"></path><path d="M0 0 C35.59 0, 71.18 0, 89.63 0 M0 0 C34.14 0, 68.27 0, 89.63 0 M89.63 0 C89.63 8.57, 89.63 17.14, 89.63 22.4 M89.63 0 C89.63 6.96, 89.63 13.91, 89.63 22.4 M89.63 22.4 C67.3 22.4, 44.96 22.4, 0 22.4 M89.63 22.4 C60.65 22.4, 31.66 22.4, 0 22.4 M0 22.4 C0 17.65, 0 12.91, 0 0 M0 22.4 C0 15.97, 0 9.53, 0 0" stroke="transparent" stroke-width="2" fill="none"></path></g><g transform="translate(385.1835708618164 230.24500885009766) rotate(0 41.81640625 9.200000000000003)"><text x="41.81640625" y="13.5203125" font-family="Helvetica, Segoe UI Emoji" font-size="16px" fill="#0d0d0d" text-anchor="middle" style="white-space: pre;" direction="ltr" dominant-baseline="alphabetic">depends on</text></g><g stroke-linecap="round" transform="translate(589.0976829528809 228.24500885009766) rotate(0 43.90234375 11.200000000000003)"><path d="M0 0 L87.8 0 L87.8 22.4 L0 22.4" stroke="none" stroke-width="0" fill="#fdfdfc"></path><path d="M0 0 C17.68 0, 35.37 0, 87.8 0 M0 0 C29.87 0, 59.74 0, 87.8 0 M87.8 0 C87.8 4.93, 87.8 9.87, 87.8 22.4 M87.8 0 C87.8 5.63, 87.8 11.26, 87.8 22.4 M87.8 22.4 C61.44 22.4, 35.07 22.4, 0 22.4 M87.8 22.4 C55.32 22.4, 22.84 22.4, 0 22.4 M0 22.4 C0 17.35, 0 12.3, 0 0 M0 22.4 C0 13.69, 0 4.98, 0 0" stroke="transparent" stroke-width="2" fill="none"></path></g><g transform="translate(592.0976829528809 230.24500885009766) rotate(0 40.90234375 9.200000000000003)"><text x="40.90234375" y="13.5203125" font-family="Helvetica, Segoe UI Emoji" font-size="16px" fill="#0d0d0d" text-anchor="middle" style="white-space: pre;" direction="ltr" dominant-baseline="alphabetic">implements</text></g></svg>